<?xml version="1.0" standalone="no"?>
<!DOCTYPE svg PUBLIC "-//W3C//DTD SVG 20010904//EN"
 "http://www.w3.org/TR/2001/REC-SVG-20010904/DTD/svg10.dtd">
<svg version="1.0" xmlns="http://www.w3.org/2000/svg"
 width="842.000000pt" height="842.000000pt" viewBox="0 0 842.000000 842.000000"
 preserveAspectRatio="xMidYMid meet">
<metadata>
Created by potrace 1.11, written by Peter Selinger 2001-2013
</metadata>
<g transform="translate(0.000000,842.000000) scale(0.100000,-0.100000)"
fill="#000000" stroke="none">
<path d="M163 7835 c-1 -55 2 -73 10 -68 9 5 9 3 1 -8 -8 -10 -11 -151 -10
-464 l1 -450 263 0 c144 0 263 -2 263 -5 1 -3 2 -1201 3 -2662 1 -1784 -2
-2658 -9 -2659 -5 0 -125 -1 -266 -2 l-255 -1 0 -533 0 -533 1065 0 1066 0 0
533 -1 532 -244 2 c-135 1 -255 2 -268 2 -20 1 -22 5 -19 46 2 25 -1 45 -5 45
-5 0 -6 5 -2 12 10 15 11 277 2 272 -4 -3 -5 2 -1 11 10 27 9 314 -1 308 -5
-4 -6 0 -1 7 4 7 7 57 6 111 -1 55 -1 105 -1 112 0 6 1 175 2 374 2 213 -1
359 -6 356 -5 -4 -6 0 -1 7 4 7 7 57 6 111 -1 55 -1 107 -1 117 0 9 0 154 0
322 0 168 0 312 0 320 0 8 1 277 1 598 1 320 3 581 4 580 2 -2 40 -86 85 -188
46 -102 95 -213 111 -248 16 -34 29 -64 29 -67 0 -4 33 -77 106 -233 19 -39
34 -74 34 -77 0 -3 16 -39 35 -81 19 -41 35 -78 35 -80 0 -3 11 -29 24 -57 13
-29 52 -115 86 -192 34 -77 70 -158 80 -180 10 -22 46 -103 80 -180 34 -77 70
-158 80 -180 10 -22 49 -107 85 -190 37 -82 75 -168 85 -190 10 -22 41 -94 70
-160 29 -66 70 -157 91 -203 22 -46 39 -85 39 -87 0 -2 16 -38 35 -79 19 -42
35 -78 35 -80 0 -2 18 -44 41 -93 45 -98 53 -115 99 -223 18 -41 50 -112 71
-158 22 -46 39 -85 39 -87 0 -2 13 -32 29 -67 57 -125 81 -179 81 -182 0 -3
15 -37 34 -78 18 -40 68 -152 111 -248 43 -96 91 -203 106 -238 16 -34 29 -64
29 -66 0 -2 20 -47 45 -100 25 -53 45 -99 45 -101 0 -3 14 -35 31 -72 17 -38
46 -102 64 -143 18 -41 42 -96 55 -122 l22 -48 534 0 534 0 2 200 3 200 200
-200 200 -200 1013 0 1013 0 425 424 c233 234 424 433 425 443 5 121 0 1053
-6 1063 -5 7 -4 11 1 7 10 -6 11 54 1 70 -4 6 -4 13 0 17 3 3 6 317 6 697 l0
690 -426 426 -425 425 -906 0 -906 0 0 1064 c0 585 3 1064 8 1065 4 0 361 1
794 2 518 1 789 -1 791 -8 2 -5 3 -126 3 -268 l-1 -257 535 0 535 0 -1 374 -1
375 -401 401 c-251 251 -406 399 -413 394 -8 -5 -9 -3 -4 5 4 7 -1 20 -14 32
-20 19 -61 19 -2036 19 -1108 0 -2015 -3 -2016 -7 -6 -65 -2 -320 5 -316 5 4
6 0 1 -7 -4 -7 -7 -57 -6 -111 1 -55 1 -105 1 -111 0 -7 0 -56 -1 -108 -1 -52
0 -108 0 -125 1 -16 1 -79 0 -140 0 -60 0 -117 0 -126 1 -14 30 -16 266 -15
l265 1 1 -30 c1 -41 1 -3679 0 -3685 -1 -3 -26 51 -57 120 -31 69 -67 149 -80
178 -13 29 -24 54 -24 56 0 3 -28 66 -90 201 -5 11 -36 81 -69 155 -32 74 -73
165 -90 203 -17 37 -31 70 -31 72 0 2 -16 36 -35 76 -19 39 -37 80 -41 91 -3
12 -21 53 -39 92 -18 39 -48 105 -65 146 -18 41 -50 112 -71 158 -22 46 -39
85 -39 87 0 2 -16 38 -35 79 -19 42 -35 78 -35 80 0 2 -18 43 -40 90 -22 47
-40 88 -40 90 0 3 -20 49 -45 102 -25 53 -45 98 -45 101 0 2 -18 42 -40 89
-22 47 -40 87 -40 89 0 2 -13 32 -29 67 -57 124 -81 179 -81 182 0 3 -36 85
-90 201 -5 11 -27 61 -49 110 -21 50 -50 115 -64 145 -13 30 -40 91 -60 135
-83 189 -202 456 -233 523 -19 40 -34 75 -34 77 0 2 -13 32 -29 67 -16 35 -39
86 -51 113 -12 28 -33 74 -46 103 -13 29 -24 55 -24 57 0 2 -20 48 -45 101
-25 53 -45 98 -45 100 0 3 -22 53 -49 112 -27 59 -59 130 -71 157 -12 28 -33
74 -46 103 -13 29 -24 57 -24 62 0 6 -291 10 -803 10 l-803 0 -1 -75z m5684
-450 c0 -8 -4 -12 -9 -9 -5 3 -6 10 -3 15 9 13 12 11 12 -6z m-4160 -640 c0
-8 -4 -12 -9 -9 -5 3 -6 10 -3 15 9 13 12 11 12 -6z m2560 -330 c0 -8 -4 -12
-9 -9 -5 3 -6 10 -3 15 9 13 12 11 12 -6z m-2067 -311 c0 -8 -19 -13 -24 -6
-3 5 1 9 9 9 8 0 15 -2 15 -3z m-1133 -329 c0 -8 -4 -12 -9 -9 -5 3 -6 10 -3
15 9 13 12 11 12 -6z m3200 -640 c0 -8 -4 -12 -9 -9 -5 3 -6 10 -3 15 9 13 12
11 12 -6z m2021 -1490 c496 0 903 -2 903 -5 7 -28 2 -2113 -5 -2118 -5 -3
-364 -6 -798 -6 l-788 -1 0 268 0 267 -310 0 -310 0 0 223 c0 334 -1 1461 0
1629 l0 146 203 -202 202 -201 903 0z m-4743 -894 c3 -5 2 -12 -3 -15 -5 -3
-9 1 -9 9 0 17 3 19 12 6z m4002 -1616 c0 -8 -4 -12 -9 -9 -5 3 -6 10 -3 15 9
13 12 11 12 -6z"/>
</g>
</svg>
